<svg width="28" height="29" viewBox="0 0 28 29" fill="none" xmlns="http://www.w3.org/2000/svg">
<path d="M17.3174 25.3367V26.186C17.3181 26.5078 17.2031 26.8192 16.9934 27.0637C16.7837 27.3081 16.4931 27.4694 16.1745 27.5182L15.9645 28.2892C15.9099 28.4931 15.7893 28.6732 15.6216 28.8017C15.4539 28.9302 15.2484 29 15.037 29H12.9575C12.7461 29 12.5406 28.9302 12.3729 28.8017C12.2052 28.6732 12.0847 28.4931 12.03 28.2892L11.8255 27.5182C11.5052 27.4694 11.213 27.3077 11.002 27.0622C10.791 26.8168 10.6751 26.5039 10.6753 26.1805V25.333C10.675 25.2255 10.6961 25.119 10.7372 25.0196C10.7783 24.9202 10.8387 24.8299 10.9149 24.7539C10.991 24.6778 11.0815 24.6176 11.1811 24.5766C11.2806 24.5355 11.3873 24.5145 11.495 24.5148H16.4958C16.7136 24.5162 16.922 24.6033 17.0758 24.7572C17.2296 24.9111 17.3164 25.1193 17.3174 25.3367ZM21.1661 13.9021C21.1705 15.755 20.4499 17.5364 19.1578 18.8667C18.2167 19.8438 17.6018 21.0879 17.3977 22.4279C17.3533 22.7066 17.2106 22.9602 16.9953 23.143C16.7801 23.3258 16.5064 23.4257 16.2238 23.4248H11.7671C11.4859 23.4264 11.2135 23.3273 10.9994 23.1453C10.7853 22.9634 10.6437 22.7107 10.6004 22.4334C10.3905 21.0894 9.77155 19.8423 8.82762 18.8612C8.01528 18.0174 7.42273 16.9876 7.10193 15.862C6.78112 14.7364 6.74188 13.5494 6.98761 12.4051C7.23334 11.2609 7.75655 10.1942 8.51136 9.2988C9.26618 8.40337 10.2295 7.70646 11.317 7.2692C12.4044 6.83194 13.5827 6.66768 14.7486 6.79082C15.9144 6.91396 17.0322 7.32076 18.0039 7.97551C18.9756 8.63026 19.7715 9.51299 20.3219 10.5463C20.8722 11.5796 21.1602 12.7318 21.1606 13.9021H21.1661ZM14.8088 9.57C14.8088 9.35587 14.7236 9.15048 14.5719 8.99907C14.4202 8.84766 14.2145 8.76263 14 8.76263C12.6288 8.7636 11.314 9.30762 10.3443 10.2753C9.37453 11.243 8.82907 12.5553 8.82762 13.924C8.83749 14.1313 8.92693 14.3268 9.07736 14.47C9.22779 14.6132 9.42766 14.693 9.63552 14.693C9.84338 14.693 10.0433 14.6132 10.1937 14.47C10.3441 14.3268 10.4335 14.1313 10.4434 13.924C10.4449 12.9831 10.8201 12.081 11.4868 11.4158C12.1536 10.7506 13.0573 10.3765 14 10.3755C14.1062 10.376 14.2114 10.3555 14.3097 10.3152C14.4079 10.275 14.4972 10.2157 14.5723 10.1408C14.6475 10.0659 14.7071 9.97693 14.7477 9.87897C14.7883 9.781 14.809 9.67601 14.8088 9.57ZM14 4.40131C14.2145 4.40131 14.4202 4.31623 14.5719 4.16482C14.7236 4.01341 14.8088 3.80807 14.8088 3.59394V0.768991C14.7989 0.561733 14.7095 0.366225 14.5591 0.223033C14.4087 0.0798411 14.2088 0 14.0009 0C13.7931 0 13.5932 0.0798411 13.4427 0.223033C13.2923 0.366225 13.2029 0.561733 13.193 0.768991V3.59394C13.1928 3.69997 13.2135 3.80497 13.2539 3.90302C13.2943 4.00107 13.3537 4.09023 13.4286 4.16537C13.5036 4.24052 13.5926 4.30017 13.6906 4.34096C13.7887 4.38176 13.8938 4.40291 14 4.40315V4.40131ZM4.48596 13.8948C4.48596 13.6807 4.40075 13.4754 4.24906 13.324C4.09738 13.1725 3.89166 13.0875 3.67715 13.0875H0.84723C0.737905 13.0823 0.628661 13.0993 0.526115 13.1375C0.423569 13.1757 0.329841 13.2343 0.250632 13.3097C0.171423 13.3851 0.10837 13.4757 0.0652873 13.5761C0.0222047 13.6766 0 13.7847 0 13.8939C0 14.0032 0.0222047 14.1113 0.0652873 14.2118C0.10837 14.3122 0.171423 14.4028 0.250632 14.4782C0.329841 14.5536 0.423569 14.6122 0.526115 14.6504C0.628661 14.6886 0.737905 14.7056 0.84723 14.7004H3.67897C3.78502 14.7007 3.89007 14.68 3.98808 14.6396C4.0861 14.5992 4.17515 14.5398 4.25014 14.465C4.32512 14.3901 4.38455 14.3013 4.42502 14.2034C4.46549 14.1056 4.4862 14.0007 4.48596 13.8948ZM27.1528 13.0875H24.321C24.2117 13.0823 24.1024 13.0993 23.9999 13.1375C23.8974 13.1757 23.8036 13.2343 23.7244 13.3097C23.6452 13.3851 23.5822 13.4757 23.5391 13.5761C23.496 13.6766 23.4738 13.7847 23.4738 13.8939C23.4738 14.0032 23.496 14.1113 23.5391 14.2118C23.5822 14.3122 23.6452 14.4028 23.7244 14.4782C23.8036 14.5536 23.8974 14.6122 23.9999 14.6504C24.1024 14.6886 24.2117 14.7056 24.321 14.7004H27.1528C27.2621 14.7056 27.3713 14.6886 27.4739 14.6504C27.5764 14.6122 27.6701 14.5536 27.7494 14.4782C27.8286 14.4028 27.8916 14.3122 27.9347 14.2118C27.9778 14.1113 28 14.0032 28 13.8939C28 13.7847 27.9778 13.6766 27.9347 13.5761C27.8916 13.4757 27.8286 13.3851 27.7494 13.3097C27.6701 13.2343 27.5764 13.1757 27.4739 13.1375C27.3713 13.0993 27.2621 13.0823 27.1528 13.0875ZM6.1328 20.6091L4.12447 22.6139C3.98349 22.7665 3.90701 22.9676 3.911 23.1752C3.91498 23.3828 3.99912 23.5809 4.14585 23.728C4.29258 23.8752 4.49057 23.9602 4.69851 23.9651C4.90646 23.9701 5.10829 23.8947 5.26192 23.7547L7.27025 21.7499C7.41122 21.5973 7.4877 21.3962 7.48372 21.1886C7.47973 20.981 7.3956 20.7829 7.24887 20.6358C7.10214 20.4886 6.90415 20.4036 6.6962 20.3987C6.48826 20.3937 6.28642 20.4691 6.1328 20.6091ZM21.2976 7.41759C21.5102 7.41756 21.7143 7.33374 21.8654 7.18433L23.8737 5.17953C24.0155 5.0263 24.0923 4.82425 24.0881 4.61572C24.084 4.4072 23.9991 4.2084 23.8514 4.06092C23.7037 3.91344 23.5045 3.82875 23.2956 3.8246C23.0867 3.82044 22.8843 3.89713 22.7308 4.03862L20.7224 6.04341C20.647 6.11812 20.5872 6.20697 20.5463 6.30488C20.5055 6.40278 20.4845 6.50779 20.4845 6.61384C20.4845 6.7199 20.5055 6.8249 20.5463 6.92281C20.5872 7.02071 20.647 7.10962 20.7224 7.18433C20.8759 7.33484 21.0824 7.41925 21.2976 7.41943V7.41759ZM6.1328 7.17882C6.20661 7.25876 6.29585 7.32295 6.39517 7.36754C6.49449 7.41213 6.60183 7.4362 6.71072 7.43828C6.8196 7.44037 6.92778 7.42042 7.02874 7.37966C7.1297 7.3389 7.22134 7.27818 7.29816 7.20112C7.37498 7.12407 7.43539 7.03229 7.47574 6.93132C7.51608 6.83034 7.53554 6.72224 7.53293 6.61356C7.53032 6.50489 7.5057 6.39786 7.46055 6.29893C7.41541 6.2 7.35068 6.11125 7.27025 6.03796L5.26192 4.03317C5.18802 3.95328 5.09872 3.8891 4.99937 3.84451C4.90003 3.79992 4.79269 3.77581 4.68379 3.77365C4.57488 3.77148 4.46666 3.79133 4.36561 3.83194C4.26457 3.87255 4.17279 3.93309 4.09577 4.00997C4.01875 4.08686 3.95807 4.17847 3.91739 4.27934C3.87671 4.3802 3.85686 4.48827 3.85903 4.59698C3.86119 4.70569 3.88534 4.81284 3.93001 4.91201C3.97468 5.01118 4.03896 5.10032 4.11899 5.17408L6.1328 7.17882ZM21.8672 20.6091C21.7933 20.5292 21.704 20.465 21.6047 20.4204C21.5053 20.3758 21.398 20.3517 21.2891 20.3496C21.1802 20.3474 21.0719 20.3672 20.9709 20.4078C20.8699 20.4484 20.7781 20.509 20.701 20.5859C20.624 20.6628 20.5634 20.7544 20.5227 20.8552C20.482 20.9561 20.4621 21.0641 20.4643 21.1728C20.4665 21.2815 20.4906 21.3887 20.5353 21.4879C20.58 21.5871 20.6442 21.6762 20.7243 21.7499L22.7326 23.7547C22.8064 23.8347 22.8957 23.8989 22.995 23.9434C23.0943 23.988 23.2016 24.0121 23.3105 24.0142C23.4194 24.0163 23.5276 23.9963 23.6285 23.9556C23.7295 23.9148 23.8212 23.8541 23.898 23.777C23.9748 23.7 24.0352 23.6082 24.0755 23.5072C24.1159 23.4062 24.1353 23.2981 24.1327 23.1895C24.1301 23.0808 24.1055 22.9738 24.0604 22.8748C24.0152 22.7759 23.9505 22.6872 23.87 22.6139L21.8672 20.6091Z" fill="#6E8A9E"/>
</svg>
