<svg width="32" height="32" viewBox="0 0 32 32" fill="none" xmlns="http://www.w3.org/2000/svg">
<path d="M23.3714 10.3613C23.2781 10.348 23.1848 10.348 23.0914 10.3613C21.0248 10.2946 19.3848 8.6013 19.3848 6.5213C19.3848 4.4013 21.1048 2.66797 23.2381 2.66797C25.3581 2.66797 27.0914 4.38797 27.0914 6.5213C27.0781 8.6013 25.4381 10.2946 23.3714 10.3613Z" fill="#6E8A9E"/>
<path d="M27.7214 19.6005C26.2281 20.6005 24.1348 20.9739 22.2014 20.7205C22.7081 19.6272 22.9748 18.4139 22.9881 17.1339C22.9881 15.8005 22.6948 14.5339 22.1348 13.4272C24.1081 13.1605 26.2014 13.5339 27.7081 14.5339C29.8148 15.9205 29.8148 18.2005 27.7214 19.6005Z" fill="#6E8A9E"/>
<path d="M8.58753 10.3613C8.68086 10.348 8.77419 10.348 8.86753 10.3613C10.9342 10.2946 12.5742 8.6013 12.5742 6.5213C12.5742 4.38797 10.8542 2.66797 8.72086 2.66797C6.60086 2.66797 4.88086 4.38797 4.88086 6.5213C4.88086 8.6013 6.52086 10.2946 8.58753 10.3613Z" fill="#6E8A9E"/>
<path d="M8.73544 17.1341C8.73544 18.4275 9.01544 19.6541 9.52211 20.7608C7.64211 20.9608 5.68211 20.5608 4.24211 19.6141C2.13544 18.2141 2.13544 15.9341 4.24211 14.5341C5.66878 13.5741 7.68211 13.1875 9.57544 13.4008C9.02878 14.5208 8.73544 15.7875 8.73544 17.1341Z" fill="#6E8A9E"/>
<path d="M16.1604 21.16C16.0537 21.1467 15.9337 21.1467 15.8137 21.16C13.3604 21.08 11.4004 19.0667 11.4004 16.5867C11.4137 14.0533 13.4537 12 16.0004 12C18.5337 12 20.5871 14.0533 20.5871 16.5867C20.5737 19.0667 18.6271 21.08 16.1604 21.16Z" fill="#6E8A9E"/>
<path d="M11.8284 23.9195C9.81503 25.2662 9.81503 27.4795 11.8284 28.8129C14.1217 30.3462 17.8817 30.3462 20.175 28.8129C22.1884 27.4662 22.1884 25.2529 20.175 23.9195C17.895 22.3862 14.135 22.3862 11.8284 23.9195Z" fill="#6E8A9E"/>
</svg>
