<svg width="32" height="32" viewBox="0 0 32 32" fill="none" xmlns="http://www.w3.org/2000/svg">
<path d="M18.6363 5.04545C18.6363 4.46807 18.1682 4 17.5908 4H13.4086C12.8312 4 12.3631 4.46807 12.3631 5.04545L12.3631 9.88637C12.3631 9.96685 12.276 10.0171 12.2063 9.97691L7.65955 7.35207C7.15948 7.06337 6.52004 7.2347 6.23132 7.73473L4.14025 11.3563C3.85153 11.8563 4.02287 12.4957 4.52294 12.7844L9.06986 15.4094C9.13956 15.4496 9.13956 15.5502 9.06986 15.5904L4.52565 18.2138C4.02557 18.5025 3.85424 19.1419 4.14295 19.642L6.23403 23.2635C6.52274 23.7635 7.16219 23.9349 7.66226 23.6462L12.2063 21.0229C12.276 20.9827 12.3631 21.033 12.3631 21.1134V25.9545C12.3631 26.5319 12.8312 27 13.4086 27H17.5908C18.1682 27 18.6363 26.5319 18.6363 25.9545V21.1132C18.6363 21.0327 18.7235 20.9824 18.7932 21.0227L23.3404 23.6478C23.8405 23.9365 24.48 23.7652 24.7687 23.2652L26.8598 19.6436C27.1485 19.1436 26.9771 18.5042 26.4771 18.2155L21.93 15.5904C21.8603 15.5502 21.8603 15.4496 21.93 15.4094L26.4738 12.7862C26.9739 12.4975 27.1452 11.8581 26.8565 11.3581L24.7654 7.73651C24.4767 7.23647 23.8373 7.06515 23.3372 7.35384L18.7932 9.97714C18.7235 10.0174 18.6363 9.96708 18.6363 9.8866V5.04545Z" fill="#6E8A9E"/>
</svg>
