<svg width="32" height="32" viewBox="0 0 32 32" fill="none" xmlns="http://www.w3.org/2000/svg">
<path d="M17.0016 5C17.0016 4.44772 16.5538 4 16.0016 4C15.4493 4 15.0016 4.44772 15.0016 5V8.33333C15.0016 8.88562 15.4493 9.33333 16.0016 9.33333C16.5538 9.33333 17.0016 8.88562 17.0016 8.33333V5Z" fill="#6E8A9E"/>
<path d="M9.68857 6.93065C9.33357 6.50758 8.70281 6.45239 8.27974 6.8074C7.85666 7.1624 7.80148 7.79315 8.15648 8.21623L10.2991 10.7697C10.6541 11.1928 11.2849 11.248 11.7079 10.893C12.131 10.538 12.1862 9.90721 11.8312 9.48413L9.68857 6.93065Z" fill="#6E8A9E"/>
<path d="M23.8308 8.21635C24.1858 7.79328 24.1306 7.16253 23.7075 6.80752C23.2845 6.45252 22.6537 6.50771 22.2987 6.93078L20.1561 9.48426C19.8011 9.90734 19.8563 10.5381 20.2793 10.8931C20.7024 11.2481 21.3332 11.1929 21.6882 10.7698L23.8308 8.21635Z" fill="#6E8A9E"/>
<path d="M6.96162 12C5.77415 12 4.70315 12.714 4.24643 13.8101L3.7186 15.0769C3.4857 15.6359 2.93954 16 2.33398 16C1.7817 16 1.33398 16.4477 1.33398 17V25.3333C1.33398 26.0697 1.93094 26.6667 2.66732 26.6667H9.85315C12.531 26.6667 14.769 24.6287 15.019 21.9625L15.2347 19.6613C15.5195 16.624 13.1299 14 10.0793 14C9.94803 14 9.82543 13.9344 9.7526 13.8251L9.40905 13.3098C8.86351 12.4915 7.9451 12 6.96162 12Z" fill="#6E8A9E"/>
<path d="M24.9634 12C23.9799 12 23.0615 12.4915 22.5159 13.3098L22.1724 13.8251C22.0996 13.9344 21.977 14 21.8457 14C18.795 14 16.4055 16.624 16.6903 19.6613L16.906 21.9625C17.156 24.6287 19.394 26.6667 22.0718 26.6667H29.2577C29.9941 26.6667 30.591 26.0697 30.591 25.3333V17C30.591 16.4477 30.1433 16 29.591 16C28.9855 16 28.4393 15.6359 28.2064 15.0769L27.6786 13.8101C27.2218 12.714 26.1508 12 24.9634 12Z" fill="#6E8A9E"/>
</svg>
